#Comment line ignore any data following # character 
#Hierarchical Translation and Rotation (.htr) file 
[Header]	
#Header keywords are followed by a single value 
FileType HTR		#Single word string
DataType HTRS		#Translation followed by rotation and scale data
FileVersion 1		#integer
NumSegments 84		#integer
NumFrames 2		#integer
DataFrameRate 30		#integer, data frame rate in this file
EulerRotationOrder ZYX
CalibrationUnits mm
RotationUnits Degrees
GlobalAxisofGravity Y
BoneLengthAxis Y
ScaleFactor 1.00
[SegmentNames&Hierarchy]
#CHILD	PARENT
MASTER GLOBAL
root MASTER
chest root
L_mid_tent01 root
R_mid_tent01 root
spine01 root
Bip01_Neck chest
L_humerus chest
R_humerus chest
weapon_bone chest
Bip01_Head Bip01_Neck
eye_left_bone Bip01_Head
eye_right_bone Bip01_Head
L_forearm L_humerus
L_front_hand L_forearm
L_weapon_bone L_forearm
L_front_hand01_01 L_front_hand
L_front_hand02_01 L_front_hand
L_front_hand03_01 L_front_hand
L_front_hand01_02 L_front_hand01_01
L_front_hand02_02 L_front_hand02_01
L_front_hand03_02 L_front_hand03_01
R_forearm R_humerus
R_front_hand R_forearm
R_weapon_bone R_forearm
R_front_hand01_01 R_front_hand
R_front_hand02_01 R_front_hand
R_front_hand03_01 R_front_hand
R_front_hand01_02 R_front_hand01_01
R_front_hand02_02 R_front_hand02_01
R_front_hand03_02 R_front_hand03_01
null_rope01_connect L_mid_tent01
Rope1_Seg01 null_rope01_connect
Rope1_Seg02 Rope1_Seg01
Rope1_Seg03 Rope1_Seg02
Rope1_Seg04 Rope1_Seg03
Rope1_Seg05 Rope1_Seg04
Rope1_Seg06 Rope1_Seg05
Rope1_Seg07 Rope1_Seg06
Rope1_Seg09 Rope1_Seg07
L_mid_hand01 Rope1_Seg09
L_mid_hand02 Rope1_Seg09
L_mid_hand03 Rope1_Seg09
null_rope02_connect R_mid_tent01
Rope2_Seg01 null_rope02_connect
Rope2_Seg02 Rope2_Seg01
Rope2_Seg03 Rope2_Seg02
Rope2_Seg04 Rope2_Seg03
Rope2_Seg05 Rope2_Seg04
Rope2_Seg06 Rope2_Seg05
Rope2_Seg07 Rope2_Seg06
Rope2_Seg09 Rope2_Seg07
R_mid_hand01 Rope2_Seg09
R_mid_hand02 Rope2_Seg09
R_mid_hand03 Rope2_Seg09
spine02 spine01
spine03 spine02
pelvis spine03
null_rope03_connect pelvis
null_rope04_connect pelvis
Rope3_Seg01 null_rope03_connect
Rope3_Seg02 Rope3_Seg01
Rope3_Seg03 Rope3_Seg02
Rope3_Seg04 Rope3_Seg03
Rope3_Seg05 Rope3_Seg04
Rope3_Seg06 Rope3_Seg05
Rope3_Seg07 Rope3_Seg06
Rope3_Seg08 Rope3_Seg07
Rope3_Seg09 Rope3_Seg08
R_rear_hand01 Rope3_Seg09
R_rear_hand02 Rope3_Seg09
R_rear_hand03 Rope3_Seg09
Rope4_Seg01 null_rope04_connect
Rope4_Seg02 Rope4_Seg01
Rope4_Seg03 Rope4_Seg02
Rope4_Seg04 Rope4_Seg03
Rope4_Seg05 Rope4_Seg04
Rope4_Seg06 Rope4_Seg05
Rope4_Seg07 Rope4_Seg06
Rope4_Seg08 Rope4_Seg07
Rope4_Seg09 Rope4_Seg08
L_rear_hand01 Rope4_Seg09
L_rear_hand02 Rope4_Seg09
L_rear_hand03 Rope4_Seg09
[BasePosition]
#SegmentName Tx, Ty, Tz, Rx, Ry, Rz, BoneLength
MASTER 0.000000 0.000000 0.000000 -90.000000 0.000000 0.000000 10.000000 
root 0.000000 0.000000 0.000000 0.000000 0.000000 0.000000 10.000000 
chest 0.000000 0.000000 0.000000 0.000000 0.000000 0.000000 10.000000 
L_mid_tent01 0.000000 0.000000 0.000000 0.000000 0.000000 0.000000 10.000000 
R_mid_tent01 0.000000 0.000000 0.000000 0.000000 0.000000 0.000000 10.000000 
spine01 0.000000 0.000000 0.000000 0.000000 0.000000 0.000000 10.000000 
Bip01_Neck 0.000000 0.000000 0.000000 0.000000 0.000000 0.000000 10.000000 
L_humerus 0.000000 0.000000 0.000000 0.000000 0.000000 0.000000 10.000000 
R_humerus 0.000000 0.000000 0.000000 0.000000 0.000000 0.000000 10.000000 
weapon_bone 0.000000 0.000000 0.000000 0.000000 0.000000 0.000000 10.000000 
Bip01_Head 0.000000 0.000000 0.000000 0.000000 0.000000 0.000000 10.000000 
eye_left_bone 0.000000 0.000000 0.000000 0.000000 0.000000 0.000000 10.000000 
eye_right_bone 0.000000 0.000000 0.000000 0.000000 0.000000 0.000000 10.000000 
L_forearm 0.000000 0.000000 0.000000 0.000000 0.000000 0.000000 10.000000 
L_front_hand 0.000000 0.000000 0.000000 0.000000 0.000000 0.000000 10.000000 
L_weapon_bone 0.000000 0.000000 0.000000 0.000000 0.000000 0.000000 10.000000 
L_front_hand01_01 0.000000 0.000000 0.000000 0.000000 0.000000 0.000000 10.000000 
L_front_hand02_01 0.000000 0.000000 0.000000 0.000000 0.000000 0.000000 10.000000 
L_front_hand03_01 0.000000 0.000000 0.000000 0.000000 0.000000 0.000000 10.000000 
L_front_hand01_02 0.000000 0.000000 0.000000 0.000000 0.000000 0.000000 10.000000 
L_front_hand02_02 0.000000 0.000000 0.000000 0.000000 0.000000 0.000000 10.000000 
L_front_hand03_02 0.000000 0.000000 0.000000 0.000000 0.000000 0.000000 10.000000 
R_forearm 0.000000 0.000000 0.000000 0.000000 0.000000 0.000000 10.000000 
R_front_hand 0.000000 0.000000 0.000000 0.000000 0.000000 0.000000 10.000000 
R_weapon_bone 0.000000 0.000000 0.000000 0.000000 0.000000 0.000000 10.000000 
R_front_hand01_01 0.000000 0.000000 0.000000 0.000000 0.000000 0.000000 10.000000 
R_front_hand02_01 0.000000 0.000000 0.000000 0.000000 0.000000 0.000000 10.000000 
R_front_hand03_01 0.000000 0.000000 0.000000 0.000000 0.000000 0.000000 10.000000 
R_front_hand01_02 0.000000 0.000000 0.000000 0.000000 0.000000 0.000000 10.000000 
R_front_hand02_02 0.000000 0.000000 0.000000 0.000000 0.000000 0.000000 10.000000 
R_front_hand03_02 0.000000 0.000000 0.000000 0.000000 0.000000 0.000000 10.000000 
null_rope01_connect 0.000000 0.000000 0.000000 0.000000 0.000000 0.000000 10.000000 
Rope1_Seg01 0.000000 0.000000 0.000000 0.000000 0.000000 0.000000 10.000000 
Rope1_Seg02 0.000000 0.000000 0.000000 0.000000 0.000000 0.000000 10.000000 
Rope1_Seg03 0.000000 0.000000 0.000000 0.000000 0.000000 0.000000 10.000000 
Rope1_Seg04 0.000000 0.000000 0.000000 0.000000 0.000000 0.000000 10.000000 
Rope1_Seg05 0.000000 0.000000 0.000000 0.000000 0.000000 0.000000 10.000000 
Rope1_Seg06 0.000000 0.000000 0.000000 0.000000 0.000000 0.000000 10.000000 
Rope1_Seg07 0.000000 0.000000 0.000000 0.000000 0.000000 0.000000 10.000000 
Rope1_Seg09 0.000000 0.000000 0.000000 0.000000 0.000000 0.000000 10.000000 
L_mid_hand01 0.000000 0.000000 0.000000 0.000000 0.000000 0.000000 10.000000 
L_mid_hand02 0.000000 0.000000 0.000000 0.000000 0.000000 0.000000 10.000000 
L_mid_hand03 0.000000 0.000000 0.000000 0.000000 0.000000 0.000000 10.000000 
null_rope02_connect 0.000000 0.000000 0.000000 0.000000 0.000000 0.000000 10.000000 
Rope2_Seg01 0.000000 0.000000 0.000000 0.000000 0.000000 0.000000 10.000000 
Rope2_Seg02 0.000000 0.000000 0.000000 0.000000 0.000000 0.000000 10.000000 
Rope2_Seg03 0.000000 0.000000 0.000000 0.000000 0.000000 0.000000 10.000000 
Rope2_Seg04 0.000000 0.000000 0.000000 0.000000 0.000000 0.000000 10.000000 
Rope2_Seg05 0.000000 0.000000 0.000000 0.000000 0.000000 0.000000 10.000000 
Rope2_Seg06 0.000000 0.000000 0.000000 0.000000 0.000000 0.000000 10.000000 
Rope2_Seg07 0.000000 0.000000 0.000000 0.000000 0.000000 0.000000 10.000000 
Rope2_Seg09 0.000000 0.000000 0.000000 0.000000 0.000000 0.000000 10.000000 
R_mid_hand01 0.000000 0.000000 0.000000 0.000000 0.000000 0.000000 10.000000 
R_mid_hand02 0.000000 0.000000 0.000000 0.000000 0.000000 0.000000 10.000000 
R_mid_hand03 0.000000 0.000000 0.000000 0.000000 0.000000 0.000000 10.000000 
spine02 0.000000 0.000000 0.000000 0.000000 0.000000 0.000000 10.000000 
spine03 0.000000 0.000000 0.000000 0.000000 0.000000 0.000000 10.000000 
pelvis 0.000000 0.000000 0.000000 0.000000 0.000000 0.000000 10.000000 
null_rope03_connect 0.000000 0.000000 0.000000 0.000000 0.000000 0.000000 10.000000 
null_rope04_connect 0.000000 0.000000 0.000000 0.000000 0.000000 0.000000 10.000000 
Rope3_Seg01 0.000000 0.000000 0.000000 0.000000 0.000000 0.000000 10.000000 
Rope3_Seg02 0.000000 0.000000 0.000000 0.000000 0.000000 0.000000 10.000000 
Rope3_Seg03 0.000000 0.000000 0.000000 0.000000 0.000000 0.000000 10.000000 
Rope3_Seg04 0.000000 0.000000 0.000000 0.000000 0.000000 0.000000 10.000000 
Rope3_Seg05 0.000000 0.000000 0.000000 0.000000 0.000000 0.000000 10.000000 
Rope3_Seg06 0.000000 0.000000 0.000000 0.000000 0.000000 0.000000 10.000000 
Rope3_Seg07 0.000000 0.000000 0.000000 0.000000 0.000000 0.000000 10.000000 
Rope3_Seg08 0.000000 0.000000 0.000000 0.000000 0.000000 0.000000 10.000000 
Rope3_Seg09 0.000000 0.000000 0.000000 0.000000 0.000000 0.000000 10.000000 
R_rear_hand01 0.000000 0.000000 0.000000 0.000000 0.000000 0.000000 10.000000 
R_rear_hand02 0.000000 0.000000 0.000000 0.000000 0.000000 0.000000 10.000000 
R_rear_hand03 0.000000 0.000000 0.000000 0.000000 0.000000 0.000000 10.000000 
Rope4_Seg01 0.000000 0.000000 0.000000 0.000000 0.000000 0.000000 10.000000 
Rope4_Seg02 0.000000 0.000000 0.000000 0.000000 0.000000 0.000000 10.000000 
Rope4_Seg03 0.000000 0.000000 0.000000 0.000000 0.000000 0.000000 10.000000 
Rope4_Seg04 0.000000 0.000000 0.000000 0.000000 0.000000 0.000000 10.000000 
Rope4_Seg05 0.000000 0.000000 0.000000 0.000000 0.000000 0.000000 10.000000 
Rope4_Seg06 0.000000 0.000000 0.000000 0.000000 0.000000 0.000000 10.000000 
Rope4_Seg07 0.000000 0.000000 0.000000 0.000000 0.000000 0.000000 10.000000 
Rope4_Seg08 0.000000 0.000000 0.000000 0.000000 0.000000 0.000000 10.000000 
Rope4_Seg09 0.000000 0.000000 0.000000 0.000000 0.000000 0.000000 10.000000 
L_rear_hand01 0.000000 0.000000 0.000000 0.000000 0.000000 0.000000 10.000000 
L_rear_hand02 0.000000 0.000000 0.000000 0.000000 0.000000 0.000000 10.000000 
L_rear_hand03 0.000000 0.000000 0.000000 0.000000 0.000000 0.000000 10.000000 
#Beginning of Data. Separated by tabs
#Fr	Tx	Ty	Tz	Rx	Ry	Rz	SF
[MASTER]
25 -119.512733 2281.968750 1061.407349 0.001660 0.001660 0.001660 2519.573486
26 -117.729408 2292.212891 949.582886 0.001660 0.001660 0.001660 2483.909912
[root]
25 2.696667 444.669006 1104.892578 -95.764687 -37.021496 -87.087898 1191.018677
26 2.696667 444.669006 1104.892578 -95.108749 -36.986607 -87.431587 1191.018677
[chest]
25 -84.512650 -34.090519 0.000000 -10.602808 -25.904949 148.992615 91.129311
26 -84.512650 -34.090519 0.000000 -11.289240 -26.819073 149.740311 91.129311
[L_mid_tent01]
25 27.299139 22.179211 -249.918716 -0.274865 19.358498 79.443230 252.381714
26 27.299141 22.179214 -249.918716 -0.242067 20.114885 78.878372 252.381714
[R_mid_tent01]
25 23.228794 24.509907 226.238495 126.674492 -42.576817 67.659470 228.744751
26 23.228794 24.509907 226.238495 126.375443 -43.309109 67.469505 228.744751
[spine01]
25 -0.361383 -0.195265 0.000000 -0.000001 -0.000007 22.052340 0.410763
26 -0.361383 -0.195265 0.000000 -0.000001 -0.000007 22.052340 0.410763
[Bip01_Neck]
25 165.484543 71.581718 0.000119 176.643677 -1.657967 43.431911 180.302734
26 165.484543 71.581718 0.000119 176.643677 -1.657967 43.431911 180.302734
[L_humerus]
25 -13.983130 -135.272980 -120.471481 172.145676 3.132336 -90.043724 181.680161
26 -13.983130 -135.272980 -120.471481 172.179993 1.425485 -89.778122 181.680161
[R_humerus]
25 -13.983309 -135.273102 125.287651 -176.994690 2.073917 -85.464661 184.909012
26 -13.983309 -135.273102 125.287651 -177.014343 2.678886 -85.399712 184.909012
[weapon_bone]
25 235.964890 -300.705902 0.000000 0.000000 -89.951546 -128.212341 382.234833
26 235.964890 -300.705902 0.000000 0.000000 -89.951546 -128.212341 382.234833
[Bip01_Head]
25 213.398941 185.808517 10.088277 21.288977 9.120854 -43.337307 283.135468
26 213.407959 185.789948 10.426044 37.609653 15.448285 -42.769608 283.142303
[eye_left_bone]
25 -24.626970 125.451866 -64.772606 0.000000 -90.000000 -99.840431 143.318359
26 -24.626970 125.451866 -64.772606 0.000000 -90.000000 -99.840431 143.318359
[eye_right_bone]
25 -24.626970 125.451866 64.327362 0.000000 -89.965736 80.156380 143.117676
26 -24.626970 125.451866 64.327362 0.000000 -89.965736 80.156380 143.117676
[L_forearm]
25 322.776093 0.000000 -0.000119 0.000368 -0.002318 -108.020287 322.776093
26 322.776093 0.000000 -0.000119 0.000359 -0.002320 -107.585716 322.776093
[L_front_hand]
25 241.149185 -0.042021 -3.300071 162.983582 -1.835768 -27.421452 241.171753
26 241.149185 -0.042021 -3.300071 135.958359 -1.835206 -27.421661 241.171753
[L_weapon_bone]
25 156.183838 0.000000 0.000000 0.000014 0.000007 0.000001 156.183838
26 156.183838 0.000000 0.000000 0.000014 0.000007 0.000001 156.183838
[L_front_hand01_01]
25 86.095154 20.947098 -0.655860 0.094673 -0.594282 28.708982 88.609184
26 86.095154 20.947098 -0.655860 0.405585 -0.442306 -4.620490 88.609184
[L_front_hand02_01]
25 86.935165 -11.437475 24.513514 120.181007 -25.839642 -14.570363 91.046425
26 86.935165 -11.437475 24.513514 116.959450 3.630817 1.495453 91.046425
[L_front_hand03_01]
25 86.637497 -14.123976 -20.424902 -121.401955 24.440060 -16.844923 90.126129
26 86.637497 -14.123976 -20.424902 -118.419884 -4.660555 -0.155069 90.126129
[L_front_hand01_02]
25 71.020905 -0.000179 0.000030 0.000710 0.002237 -54.804646 71.020905
26 71.020905 -0.000179 0.000030 0.001534 0.001777 -8.378850 71.020905
[L_front_hand02_02]
25 71.020927 -0.000119 0.000060 0.000710 0.002237 -54.804646 71.020927
26 71.020927 -0.000119 0.000060 0.001534 0.001777 -8.378850 71.020927
[L_front_hand03_02]
25 71.020905 -0.000060 0.000060 0.000710 0.002237 -54.804646 71.020905
26 71.020905 -0.000060 0.000060 0.001534 0.001777 -8.378850 71.020905
[R_forearm]
25 322.776428 -0.000060 0.000030 0.206643 0.060442 -107.057442 322.776428
26 322.776428 -0.000060 0.000030 0.203915 0.055699 -106.626328 322.776428
[R_front_hand]
25 238.847015 -0.006795 2.210259 173.263367 -10.645264 -26.314512 238.857239
26 238.847015 -0.006795 2.210259 -148.459183 -10.645369 -26.313662 238.857239
[R_weapon_bone]
25 155.664093 0.002503 -0.000030 0.003487 0.001180 -90.988930 155.664078
26 155.664093 0.002503 -0.000030 0.003487 0.001180 -90.988930 155.664078
[R_front_hand01_01]
25 87.624611 14.231146 22.918642 -120.948990 -28.372290 16.362129 91.683487
26 87.624611 14.231146 22.918642 -116.960213 3.496675 -1.324139 91.683487
[R_front_hand02_01]
25 89.356956 14.367283 -19.491137 122.249802 27.199530 18.998022 92.579636
26 89.356956 14.367283 -19.491137 118.419647 -4.257089 0.609827 92.579636
[R_front_hand03_01]
25 87.286232 -22.307278 -0.143439 -0.176859 -0.419138 -31.887190 90.091743
26 87.286232 -22.307278 -0.143439 -0.387970 -0.231462 4.232001 90.091743
[R_front_hand01_02]
25 71.020905 0.000060 0.000119 0.002241 0.000698 55.394104 71.020905
26 71.020905 0.000060 0.000119 0.001777 0.001534 8.377220 71.020905
[R_front_hand02_02]
25 71.020844 -0.000030 -0.000119 0.002241 0.000698 55.394104 71.020836
26 71.020844 -0.000030 -0.000119 0.001777 0.001534 8.377220 71.020836
[R_front_hand03_02]
25 71.020905 0.000000 0.000030 0.002241 0.000698 55.394104 71.020905
26 71.020905 0.000000 0.000030 0.001777 0.001534 8.377220 71.020905
[null_rope01_connect]
25 328.732483 0.000000 -0.000238 -140.225327 -66.897797 -171.616013 328.732483
26 328.732483 0.000000 -0.000238 -138.738297 -66.606361 -172.625977 328.732483
[Rope1_Seg01]
25 -0.000019 0.000019 0.000078 107.577942 -11.897527 175.618591 0.000082
26 -0.000020 0.000018 0.000081 107.988403 -10.555980 175.502487 0.000086
[Rope1_Seg02]
25 139.999863 -0.000179 0.000000 3.363400 7.700927 -21.149942 139.999863
26 139.999863 -0.000179 0.000000 3.655511 7.862766 -21.729778 139.999863
[Rope1_Seg03]
25 139.999924 0.000060 -0.000060 16.064058 -2.059936 -19.501572 139.999924
26 139.999924 0.000060 -0.000060 16.218388 -2.462834 -18.786846 139.999924
[Rope1_Seg04]
25 139.999924 -0.000060 -0.000119 25.602865 6.773392 -23.972086 139.999924
26 139.999924 -0.000060 -0.000119 27.636499 7.343033 -24.878925 139.999924
[Rope1_Seg05]
25 139.999832 0.000119 -0.000060 120.238449 3.704641 -51.131889 139.999832
26 139.999832 0.000119 -0.000060 118.227379 1.022373 -50.830708 139.999832
[Rope1_Seg06]
25 139.999954 0.000119 -0.000060 3.752130 -14.234895 8.258220 139.999954
26 139.999954 0.000119 -0.000060 3.457422 -13.550276 7.929235 139.999954
[Rope1_Seg07]
25 139.999985 0.000060 0.000000 0.782571 -5.151599 3.670302 139.999985
26 139.999985 0.000060 0.000000 0.779695 -5.066498 3.571824 139.999985
[Rope1_Seg09]
25 121.602913 0.000119 -0.000089 -89.793175 -1.359789 0.847147 121.602913
26 121.602913 0.000119 -0.000089 -89.793175 -1.359789 0.847147 121.602913
[L_mid_hand01]
25 103.859421 1.038730 8.195221 130.544373 -67.584518 -38.866947 104.187431
26 103.859421 1.038730 8.195221 130.544388 -67.584534 -38.866955 104.187431
[L_mid_hand02]
25 105.572853 -4.139662 -10.864139 -168.923172 43.409309 -73.498886 106.211075
26 105.572853 -4.139662 -10.864139 -168.923172 43.409302 -73.498894 106.211075
[L_mid_hand03]
25 104.641464 17.579376 -3.913581 -6.012629 17.808178 74.893669 106.179977
26 104.641464 17.579376 -3.913581 -6.012627 17.808176 74.893669 106.179977
[null_rope02_connect]
25 328.732849 0.000179 -0.000119 -55.320950 24.004894 45.688210 328.732849
26 328.732849 0.000179 -0.000119 -55.505009 23.727699 44.552715 328.732849
[Rope2_Seg01]
25 0.000058 0.000075 0.000000 -46.891842 -16.121975 44.571293 0.000094
26 0.000058 0.000071 0.000000 -46.239986 1.367939 27.158281 0.000092
[Rope2_Seg02]
25 139.999741 -0.000060 -0.000119 0.261685 9.450833 4.585104 139.999756
26 139.999741 -0.000060 -0.000119 -3.550149 12.770101 3.234506 139.999756
[Rope2_Seg03]
25 140.000107 0.000030 0.000000 -1.371142 16.833593 8.767735 140.000107
26 140.000107 0.000030 0.000000 -11.830359 21.050922 8.201089 140.000107
[Rope2_Seg04]
25 139.999802 0.000000 -0.000060 -6.883719 22.618238 14.187095 139.999802
26 139.999802 0.000000 -0.000060 -27.311798 23.253227 14.767062 139.999802
[Rope2_Seg05]
25 139.999985 -0.000060 0.000119 -20.020981 29.852814 20.325756 139.999985
26 139.999985 -0.000060 0.000119 -34.371162 17.710531 19.965147 139.999985
[Rope2_Seg06]
25 139.999893 -0.000030 -0.000119 -20.846153 13.398733 20.370327 139.999893
26 139.999893 -0.000030 -0.000119 -16.458769 0.998548 15.653832 139.999893
[Rope2_Seg07]
25 139.999893 0.000060 -0.000060 -8.379392 1.733883 10.030116 139.999893
26 139.999893 0.000060 -0.000060 -6.118773 -1.961781 8.028477 139.999893
[Rope2_Seg09]
25 121.338966 0.000089 -0.000060 33.793236 -1.359788 -0.847141 121.338966
26 121.338966 0.000089 -0.000060 33.793236 -1.359788 -0.847141 121.338966
[R_mid_hand01]
25 104.680779 11.144459 -10.335981 -18.585432 44.487873 67.094742 105.778534
26 104.680779 11.144459 -10.335981 -16.857145 45.048359 69.553452 105.778534
[R_mid_hand02]
25 104.070427 2.443552 8.231699 52.755077 -65.811348 35.278687 104.424065
26 104.070427 2.443552 8.231699 50.118160 -67.241356 38.150024 104.424065
[R_mid_hand03]
25 106.028137 -11.221827 -5.996406 -176.406250 15.411082 -73.996964 106.788818
26 106.028137 -11.221827 -5.996406 -176.912491 15.518663 -75.892738 106.788818
[spine02]
25 129.756927 0.001550 0.000119 0.508480 -4.027761 -15.082463 129.756927
26 129.756927 0.001550 0.000119 0.501922 -4.028601 -14.989050 129.756927
[spine03]
25 78.613976 0.081712 -4.898996 1.985590 3.786799 17.821524 78.766510
26 78.613976 0.081716 -4.898995 1.981319 3.788134 17.766291 78.766510
[pelvis]
25 169.435242 0.051022 0.000000 -0.069636 -0.178010 16.819777 169.435257
26 169.435242 0.051022 0.000000 -0.069437 -0.178088 16.691469 169.435257
[null_rope03_connect]
25 -1.257226 -2.466202 137.391083 178.647842 -86.506996 -93.146873 137.418976
26 -1.257226 -2.466202 137.391083 177.413620 -87.025597 -91.878433 137.418976
[null_rope04_connect]
25 -1.259640 -2.480268 -137.844437 178.647842 -86.506996 -93.146873 137.872513
26 -1.259640 -2.480268 -137.844437 177.413620 -87.025597 -91.878433 137.872513
[Rope3_Seg01]
25 0.000000 0.000000 0.000000 21.591845 -66.019989 107.708771 0.000000
26 0.000000 0.000000 0.000000 23.813211 -67.206169 105.544350 0.000000
[Rope3_Seg02]
25 139.999924 -0.000119 0.000060 1.613894 -7.089212 -0.108225 139.999924
26 139.999924 -0.000119 0.000060 2.149415 -8.613478 -0.264396 139.999924
[Rope3_Seg03]
25 139.999924 -0.000119 0.000119 8.179384 -22.749495 0.310715 139.999924
26 139.999924 -0.000119 0.000119 12.298310 -28.675873 0.055020 139.999924
[Rope3_Seg04]
25 139.999924 0.000119 0.000000 34.343094 -69.842743 18.929243 139.999924
26 139.999924 0.000119 0.000000 35.474400 -62.596760 18.238729 139.999924
[Rope3_Seg05]
25 139.999924 -0.000238 0.000060 7.958556 -12.298604 20.746143 139.999924
26 139.999924 -0.000238 0.000060 6.985623 -7.865462 18.535479 139.999924
[Rope3_Seg06]
25 139.999893 -0.000119 -0.000060 2.072873 0.458697 12.649244 139.999893
26 139.999893 -0.000119 -0.000060 2.251104 3.091912 16.038225 139.999893
[Rope3_Seg07]
25 139.999771 0.000060 -0.000119 0.840047 0.499051 15.832922 139.999771
26 139.999771 0.000060 -0.000119 0.542192 1.516304 15.118646 139.999771
[Rope3_Seg08]
25 139.999985 -0.000060 0.000000 -0.530371 -0.381292 10.592544 139.999985
26 139.999985 -0.000060 0.000000 -0.400695 0.444179 8.792395 139.999985
[Rope3_Seg09]
25 90.185997 -0.000179 -0.000060 89.793228 -1.359877 -0.847183 90.185997
26 90.185997 -0.000179 -0.000060 89.793228 -1.359877 -0.847183 90.185997
[R_rear_hand01]
25 103.366196 -6.073594 -10.757982 -176.652313 24.449371 -71.361534 104.101845
26 103.366196 -6.073594 -10.757982 -177.431534 24.540588 -73.234825 104.101845
[R_rear_hand02]
25 100.509819 12.039542 -7.992327 -14.552657 36.319756 69.354675 101.543350
26 100.509819 12.039542 -7.992327 -13.326716 36.728546 71.413704 101.543350
[R_rear_hand03]
25 101.539970 5.215704 5.435467 73.490242 -69.598801 19.389946 101.819031
26 101.539970 5.215704 5.435467 72.062202 -71.230415 20.902843 101.819031
[Rope4_Seg01]
25 0.000010 0.000038 -0.000114 166.981781 -60.139702 159.143661 0.000121
26 0.000010 0.000038 -0.000114 165.694183 -52.637989 161.172806 0.000121
[Rope4_Seg02]
25 139.999985 0.000060 0.000119 -11.556639 -8.086827 -13.226604 139.999985
26 139.999985 0.000060 0.000119 -21.755245 -10.029659 -16.043966 139.999985
[Rope4_Seg03]
25 139.999924 0.000000 -0.000238 -34.093868 -6.495323 -19.046738 139.999924
26 139.999924 0.000000 -0.000238 -52.517036 -5.433317 -18.650509 139.999924
[Rope4_Seg04]
25 139.999985 0.000000 0.000119 -39.485863 4.795697 -17.031416 139.999985
26 139.999985 0.000000 0.000119 -32.219860 11.228109 -11.064344 139.999985
[Rope4_Seg05]
25 139.999802 -0.000060 -0.000119 -22.200661 13.489218 -10.140672 139.999802
26 139.999802 -0.000060 -0.000119 -4.362911 24.097864 5.170910 139.999802
[Rope4_Seg06]
25 139.999924 0.000000 0.000060 -11.437256 18.037781 -5.176384 139.999924
26 139.999924 0.000000 0.000060 -0.369155 18.651421 5.682154 139.999924
[Rope4_Seg07]
25 139.999802 0.000000 0.000000 -3.865656 14.027139 -1.172089 139.999802
26 139.999802 0.000000 0.000000 -0.006085 10.539584 2.931763 139.999802
[Rope4_Seg08]
25 139.999924 0.000000 0.000119 -2.678685 7.543352 -0.130335 139.999924
26 139.999924 0.000000 0.000119 -1.453680 5.707941 1.603099 139.999924
[Rope4_Seg09]
25 90.185791 0.000060 0.000060 -135.617828 2.228885 0.850567 90.185791
26 90.185791 0.000060 0.000060 -135.617828 2.228885 0.850567 90.185791
[L_rear_hand01]
25 101.696655 -8.392275 -7.654577 -12.874829 -36.868488 107.832764 102.329041
26 101.696655 -8.392275 -7.654577 -12.874833 -36.868488 107.832779 102.329041
[L_rear_hand02]
25 102.726799 -1.568258 5.773216 71.484581 71.816628 158.486160 102.900848
26 102.726799 -1.568258 5.773216 71.484581 71.816628 158.486160 102.900848
[L_rear_hand03]
25 104.552910 9.721220 -10.420293 -177.714203 -24.565960 -106.089035 105.519653
26 104.552910 9.721220 -10.420293 -177.714203 -24.565960 -106.089035 105.519653
